<?xml version="1.0" standalone="no"?>
<!DOCTYPE svg PUBLIC "-//W3C//DTD SVG 20010904//EN"
 "http://www.w3.org/TR/2001/REC-SVG-20010904/DTD/svg10.dtd">
<svg version="1.0" xmlns="http://www.w3.org/2000/svg"
 width="900.000000pt" height="900.000000pt" viewBox="0 0 900.000000 900.000000"
 preserveAspectRatio="xMidYMid meet">
<metadata>
Created by potrace 1.14, written by Peter Selinger 2001-2017
</metadata>
<g transform="translate(0.000000,900.000000) scale(0.100000,-0.100000)"
fill="#000000" stroke="none">
<path d="M4062 8642 c-6 -2 -10 -7 -7 -12 3 -4 -5 -6 -17 -2 -16 4 -19 2 -13
-9 5 -8 -1 -6 -12 4 -21 18 -22 18 -32 0 -6 -10 -11 -13 -11 -8 0 7 -30 11
-72 12 -55 1 -78 -2 -92 -15 -15 -13 -17 -13 -11 -2 8 13 6 13 -8 1 -9 -7 -14
-18 -10 -24 4 -6 -2 -8 -15 -5 -14 4 -19 2 -16 -7 3 -7 0 -16 -6 -20 -6 -3
-10 -3 -9 2 3 20 -2 23 -21 13 -11 -6 -17 -16 -14 -22 4 -7 3 -8 -4 -4 -6 3
-16 -2 -21 -13 -6 -11 -20 -23 -31 -26 -11 -4 -18 -11 -15 -16 6 -8 -9 -13
-29 -10 -5 1 -6 -4 -4 -11 4 -9 -7 -13 -36 -15 -22 -1 -42 -6 -44 -13 -3 -8
-9 -7 -20 2 -9 7 -13 8 -9 2 4 -7 -1 -14 -12 -17 -19 -5 -51 -45 -55 -69 -1
-7 -7 -23 -14 -34 -6 -12 -8 -24 -5 -28 3 -3 2 -6 -4 -6 -5 0 -8 -13 -5 -30 3
-21 0 -30 -9 -30 -11 0 -11 -2 1 -10 12 -8 12 -10 -3 -16 -15 -5 -15 -9 -5
-22 9 -11 9 -13 1 -9 -6 4 -14 3 -18 -3 -4 -6 -11 -7 -17 -4 -6 4 -9 1 -6 -6
2 -8 -4 -22 -14 -32 -10 -10 -16 -23 -13 -29 4 -5 1 -17 -7 -26 -9 -12 -9 -15
-1 -9 9 5 11 2 7 -8 -3 -9 -11 -16 -18 -16 -6 0 -4 -5 4 -10 8 -5 10 -10 5
-10 -6 0 -11 -10 -12 -22 -1 -22 -9 -103 -17 -176 -2 -18 0 -35 5 -38 5 -3 7
-10 4 -15 -4 -5 -3 -15 2 -21 4 -7 9 -22 10 -33 2 -10 7 -22 12 -25 12 -8 20
-50 9 -50 -5 0 -2 -7 6 -16 15 -15 20 -29 17 -47 -1 -5 3 -6 9 -2 5 3 10 -1
10 -9 0 -10 9 -16 23 -16 20 -1 21 -1 4 -11 -17 -10 -17 -12 -2 -29 10 -11 14
-24 9 -32 -6 -9 -3 -9 10 1 9 8 16 10 15 5 -4 -21 2 -45 9 -40 5 3 15 -7 23
-22 8 -15 25 -37 39 -49 14 -13 21 -23 17 -23 -4 0 3 -11 17 -23 14 -13 23
-27 19 -30 -3 -4 -1 -7 6 -7 7 0 10 -4 6 -9 -3 -5 0 -15 7 -23 14 -14 17 -25
20 -63 1 -14 6 -25 11 -25 4 0 6 -4 2 -9 -3 -6 4 -15 16 -22 17 -9 19 -13 8
-20 -11 -7 -11 -9 3 -9 11 0 15 -5 12 -15 -3 -8 6 -29 20 -46 14 -17 26 -27
26 -22 0 5 -6 15 -12 22 -11 10 -7 11 16 5 20 -5 27 -3 22 4 -3 6 -2 13 3 17
6 3 8 -4 6 -16 -3 -15 0 -19 10 -15 14 5 20 -6 16 -27 -1 -5 3 -6 8 -3 5 4 11
1 13 -5 2 -7 17 -13 33 -14 17 -2 35 -4 40 -4 6 -1 3 -6 -5 -12 -13 -10 -13
-10 0 -6 8 3 22 8 30 11 19 8 25 -34 7 -47 -7 -5 -1 -5 13 -1 21 6 23 5 12 -8
-10 -12 -8 -19 8 -38 11 -13 20 -28 20 -33 0 -6 -7 -2 -16 9 -12 14 -12 12 2
-11 9 -16 23 -33 30 -37 7 -5 10 -17 7 -28 -3 -12 0 -20 7 -20 9 0 9 -4 -1
-17 -10 -11 -10 -14 -1 -9 7 4 12 2 12 -4 0 -6 5 -8 10 -5 6 4 10 3 9 -2 -1
-4 0 -10 1 -13 7 -19 7 -39 -1 -35 -5 4 -6 -1 -3 -9 3 -9 11 -13 17 -9 7 4 8
0 3 -13 -5 -10 -8 -23 -8 -29 6 -62 11 -80 28 -86 17 -7 17 -8 -3 -8 -13 -1
-23 -5 -23 -11 0 -5 6 -7 13 -4 17 6 19 -28 3 -38 -8 -6 -8 -8 0 -8 7 0 15 -7
18 -16 3 -8 2 -12 -3 -9 -5 3 -12 1 -16 -5 -3 -5 -1 -10 4 -10 6 0 11 -7 11
-16 0 -8 -4 -13 -8 -10 -5 3 -9 -1 -9 -10 0 -10 7 -12 21 -8 17 5 19 4 9 -7
-14 -14 -18 -33 -5 -25 4 2 8 -4 8 -14 0 -14 -4 -16 -12 -9 -8 7 -15 6 -20 -2
-4 -8 -3 -9 4 -5 16 10 15 -7 0 -23 -9 -10 -9 -12 -1 -7 20 11 26 -15 7 -30
-11 -9 -13 -13 -6 -9 17 9 15 -5 -5 -28 -17 -19 -17 -20 4 -9 12 7 24 17 26
24 4 9 6 10 6 1 1 -6 -4 -15 -9 -18 -8 -5 -7 -11 1 -21 9 -11 9 -14 0 -14 -7
0 -10 -4 -6 -9 3 -5 0 -13 -6 -17 -8 -5 -9 -3 -4 7 6 10 5 11 -4 3 -6 -6 -9
-19 -5 -28 4 -12 9 -14 14 -7 3 7 6 -4 6 -23 -1 -19 -3 -34 -6 -34 -20 1 -19
-5 1 -23 13 -11 18 -17 10 -13 -11 5 -13 3 -8 -10 4 -9 3 -14 -2 -11 -5 3 -12
1 -16 -5 -3 -5 -1 -10 6 -10 8 0 7 -5 -2 -17 -10 -11 -10 -14 -1 -9 7 4 12 2
12 -6 0 -8 -6 -20 -12 -27 -11 -12 -10 -13 6 -7 16 5 17 4 6 -9 -14 -17 -22
-87 -8 -79 9 6 5 -32 -5 -42 -4 -4 -1 -14 6 -22 9 -13 9 -14 0 -8 -7 4 -13 2
-13 -3 0 -6 6 -11 13 -11 8 0 7 -3 -3 -9 -8 -6 -18 -7 -24 -4 -5 3 -6 1 -2 -6
4 -6 11 -9 16 -6 5 3 12 0 16 -6 4 -8 3 -9 -5 -5 -8 5 -10 0 -7 -19 3 -15 2
-24 -2 -20 -4 3 -7 11 -7 16 0 5 -3 9 -7 9 -7 0 -10 -5 -7 -12 7 -21 3 -48 -6
-44 -8 2 -11 -7 -10 -26 1 -20 -5 -35 -20 -46 -22 -16 -22 -16 -2 -33 16 -13
17 -16 4 -16 -9 0 -14 4 -11 9 9 14 -3 9 -16 -8 -11 -12 -11 -15 0 -12 7 2 15
-3 17 -10 3 -8 -1 -10 -14 -6 -14 6 -16 4 -6 -6 12 -13 7 -40 -11 -52 -14 -10
-41 -10 -32 0 4 4 13 7 18 7 18 0 19 20 2 40 -8 11 -13 15 -10 8 9 -17 -4 -44
-18 -36 -6 3 -8 2 -3 -2 4 -5 -1 -17 -10 -28 -10 -11 -13 -17 -6 -14 6 4 14 3
18 -3 6 -9 -8 -14 -28 -11 -4 1 -3 -8 4 -20 8 -15 8 -19 0 -15 -6 4 -11 1 -11
-6 0 -9 -3 -9 -10 2 -9 14 -14 7 -11 -13 1 -5 -3 -6 -8 -2 -6 3 -21 -1 -35
-10 -19 -13 -23 -23 -20 -43 5 -26 5 -26 -11 -7 -10 13 -14 15 -13 5 2 -10 -4
-14 -17 -12 -16 2 -17 1 -5 -7 8 -5 18 -7 22 -5 4 3 8 3 8 1 0 -11 -82 -47
-92 -41 -7 5 -8 2 -4 -5 5 -7 14 -10 22 -7 8 3 11 0 7 -9 -4 -12 -9 -12 -26
-3 -20 10 -21 10 -8 -6 8 -9 11 -19 7 -23 -3 -3 -6 -1 -6 5 0 6 -8 10 -19 9
-13 -1 -17 -7 -14 -22 3 -12 1 -16 -4 -10 -9 12 -73 -14 -76 -31 -1 -5 -5 -8
-9 -7 -5 2 -8 -3 -8 -11 0 -8 -4 -18 -10 -21 -6 -4 -7 1 -4 12 5 16 4 16 -8 2
-7 -9 -18 -14 -25 -12 -6 2 -14 -1 -18 -6 -3 -6 0 -8 8 -5 8 3 18 0 23 -7 4
-8 3 -10 -4 -5 -7 4 -12 3 -12 -2 0 -6 -8 -8 -19 -5 -11 3 -21 -2 -24 -11 -4
-9 -17 -16 -29 -16 -19 0 -20 -2 -8 -11 12 -9 11 -10 -8 -6 -14 3 -20 1 -15
-6 4 -6 0 -8 -10 -4 -11 4 -23 -4 -37 -24 -12 -16 -26 -27 -31 -24 -5 4 -9 0
-9 -7 0 -10 -3 -9 -11 2 -9 12 -10 10 -5 -9 4 -18 2 -21 -6 -13 -9 9 -17 5
-31 -16 -13 -18 -17 -21 -13 -7 5 15 1 14 -18 -8 -17 -20 -26 -24 -30 -15 -3
7 -4 3 -2 -10 4 -20 2 -21 -12 -10 -14 11 -15 10 -9 -5 5 -12 3 -16 -5 -11 -8
5 -9 2 -4 -11 6 -16 4 -16 -11 -4 -15 12 -16 12 -10 -5 7 -17 6 -17 -10 -5
-14 12 -16 12 -8 0 6 -11 2 -13 -18 -9 -24 5 -25 3 -15 -16 10 -19 10 -20 -5
-7 -13 10 -17 10 -17 1 0 -9 -3 -10 -14 -1 -11 9 -12 7 -9 -12 3 -17 0 -24
-11 -24 -13 0 -13 3 -3 16 10 14 10 14 -4 4 -9 -7 -19 -9 -24 -5 -4 4 -3 -3 4
-15 16 -31 14 -40 -4 -17 -13 17 -14 17 -15 2 0 -10 -5 -18 -11 -18 -5 0 -7 4
-4 10 3 6 -1 7 -10 4 -14 -6 -14 -8 2 -20 17 -13 17 -14 -1 -7 -15 5 -18 3
-13 -10 8 -22 3 -21 -19 1 -17 16 -18 16 -11 0 7 -21 -3 -23 -23 -5 -8 6 -6 2
4 -11 11 -12 16 -25 13 -29 -4 -3 -7 -2 -7 3 0 5 -9 10 -20 11 -11 1 -20 -4
-20 -12 0 -8 -5 -17 -12 -21 -8 -5 -9 -1 -5 12 6 15 3 13 -11 -5 -13 -16 -21
-20 -26 -12 -6 9 -11 9 -22 0 -7 -6 -11 -16 -7 -23 4 -6 -2 -4 -12 4 -11 9
-16 10 -11 3 4 -8 2 -13 -4 -13 -6 0 -8 -5 -4 -11 4 -7 -1 -7 -16 1 -15 8 -20
8 -16 1 4 -6 2 -11 -3 -11 -6 0 -11 -7 -11 -15 0 -8 -5 -15 -11 -15 -5 0 -8 4
-5 9 7 11 -21 8 -31 -4 -4 -4 -2 -5 5 -1 7 4 12 1 12 -8 0 -9 -6 -15 -12 -13
-7 1 -12 -3 -11 -9 1 -6 -5 -11 -13 -11 -10 0 -11 4 -4 11 5 5 10 15 10 20 0
6 -7 0 -16 -12 -8 -12 -20 -20 -25 -17 -5 3 -6 -1 -3 -9 4 -10 0 -16 -10 -17
-32 -3 -35 -4 -50 -24 -12 -15 -16 -16 -16 -5 0 9 -6 6 -16 -10 -8 -14 -13
-18 -11 -9 3 9 -1 16 -9 16 -7 0 -11 -4 -8 -9 3 -4 0 -8 -6 -8 -6 0 -9 -4 -5
-9 3 -6 -4 -8 -15 -6 -15 3 -24 -3 -31 -22 -8 -21 -12 -23 -25 -12 -8 7 -14 8
-13 3 1 -5 1 -15 0 -23 -1 -11 -4 -11 -18 0 -10 8 -14 9 -10 2 4 -6 3 -14 -3
-18 -5 -3 -10 0 -11 7 0 7 -5 3 -11 -9 -10 -21 -12 -22 -24 -5 -9 11 -13 12
-14 4 0 -10 -5 -10 -20 -2 -16 9 -19 8 -13 -7 5 -13 3 -15 -11 -10 -9 4 -15 3
-12 -2 9 -14 -25 -22 -40 -10 -12 10 -13 9 -8 -5 5 -12 2 -15 -10 -10 -9 4
-18 0 -21 -9 -4 -8 -16 -13 -31 -11 -13 1 -24 -1 -24 -6 0 -4 -7 -11 -16 -14
-8 -3 -13 -2 -10 2 3 5 -1 9 -9 9 -8 0 -12 -4 -10 -8 3 -4 -2 -10 -11 -13 -24
-9 -31 -7 -14 4 10 7 11 10 2 10 -7 0 -15 -7 -18 -15 -4 -8 -10 -12 -15 -9 -5
3 -9 0 -9 -7 0 -7 -3 -9 -7 -6 -3 4 -15 -5 -25 -20 -10 -16 -18 -23 -18 -18 0
6 6 17 13 25 10 12 9 12 -4 2 -9 -6 -19 -9 -23 -5 -4 4 -4 -1 0 -11 6 -16 4
-18 -14 -14 -19 5 -20 3 -11 -13 13 -24 -15 -38 -42 -21 -17 11 -18 10 -9 -16
9 -24 9 -25 -4 -9 -11 15 -18 16 -39 6 -15 -7 -23 -17 -20 -25 4 -10 0 -12
-13 -7 -12 4 -15 3 -10 -5 6 -11 -5 -16 -26 -13 -4 0 -4 -7 -1 -17 6 -15 5
-15 -10 -4 -14 12 -16 11 -12 -6 2 -13 -2 -19 -13 -18 -10 0 -16 -5 -14 -14 1
-10 -2 -9 -13 4 -14 19 -21 12 -16 -16 0 -5 -5 -8 -12 -8 -20 0 -47 -33 -47
-58 0 -11 -5 -24 -12 -28 -7 -4 -8 -3 -4 4 5 8 2 10 -8 6 -15 -6 -21 -25 -17
-48 1 -5 -5 -3 -14 4 -13 11 -14 10 -9 -5 5 -13 4 -16 -5 -11 -6 4 -11 4 -10
-1 4 -21 -2 -34 -12 -27 -7 4 -10 1 -7 -7 5 -15 -22 -50 -34 -43 -4 3 -4 -6 1
-19 9 -22 7 -24 -12 -21 -12 2 -17 2 -10 -2 13 -6 6 -34 -9 -34 -5 0 -6 5 -2
12 4 6 3 8 -4 5 -5 -4 -9 -19 -7 -33 2 -18 -5 -30 -22 -41 -13 -9 -22 -22 -19
-30 4 -10 1 -11 -13 -4 -13 7 -18 6 -18 -4 0 -8 5 -11 11 -8 7 5 7 2 0 -8 -6
-8 -10 -24 -8 -37 3 -17 0 -22 -12 -20 -10 2 -19 -3 -22 -11 -3 -9 0 -11 9 -6
8 5 6 -1 -4 -12 -11 -12 -15 -27 -11 -38 5 -13 4 -16 -4 -11 -7 4 -13 2 -13
-3 -1 -6 -2 -15 -3 -20 0 -5 -5 -13 -10 -18 -5 -5 -6 -2 -1 6 5 9 3 12 -6 9
-8 -3 -13 -10 -12 -17 2 -6 -9 -14 -23 -17 -16 -4 -23 -11 -20 -21 3 -8 1 -11
-4 -8 -6 3 -10 1 -10 -5 0 -7 -7 -10 -15 -6 -8 3 -14 2 -13 -2 2 -4 -10 -20
-26 -37 -16 -16 -26 -23 -21 -15 4 8 -8 -2 -27 -22 -19 -21 -38 -35 -42 -31
-3 3 -6 -1 -6 -10 0 -11 -7 -15 -21 -12 -18 4 -19 2 -7 -12 9 -12 9 -15 1 -9
-8 4 -13 2 -13 -4 0 -7 -7 -9 -16 -6 -8 3 -12 2 -9 -4 4 -6 -4 -14 -17 -19
-13 -6 -19 -10 -13 -10 5 -1 -1 -8 -13 -17 -12 -8 -27 -12 -32 -9 -6 4 -10 3
-9 -2 4 -22 -2 -32 -16 -27 -11 4 -13 2 -9 -9 4 -10 0 -15 -13 -14 -12 2 -17
-4 -15 -16 2 -9 -1 -17 -5 -16 -23 4 -43 -2 -38 -11 3 -5 1 -10 -4 -10 -6 0
-11 -6 -11 -14 0 -8 -5 -18 -12 -22 -6 -4 -8 -3 -4 4 3 6 1 14 -5 18 -7 4 -9
3 -6 -3 4 -6 -1 -19 -9 -29 -9 -10 -13 -12 -9 -4 4 8 -3 2 -16 -13 -12 -16
-32 -33 -45 -37 -17 -7 -22 -14 -17 -27 6 -15 4 -16 -9 -5 -13 10 -15 8 -12
-15 2 -25 1 -26 -10 -10 -13 16 -14 16 -19 -3 -3 -13 -1 -18 5 -13 7 3 8 1 4
-5 -4 -7 -15 -12 -24 -13 -10 0 -12 -3 -5 -5 7 -3 9 -12 6 -20 -3 -7 -9 -11
-14 -8 -5 3 -12 -2 -15 -10 -3 -9 -11 -13 -16 -10 -6 4 -9 1 -6 -7 2 -7 -6
-23 -20 -36 -15 -14 -21 -27 -16 -35 5 -9 1 -8 -11 2 -10 8 -16 10 -12 3 4 -6
3 -14 -3 -18 -6 -4 -8 -11 -5 -16 4 -5 2 -9 -3 -9 -5 0 -14 -19 -20 -42 -10
-40 -8 -46 54 -172 68 -139 94 -187 113 -209 6 -8 8 -17 4 -20 -3 -4 -1 -7 6
-7 7 0 9 -4 6 -10 -3 -5 -1 -10 4 -10 6 0 11 -5 11 -10 0 -6 8 -23 19 -38 36
-54 55 -87 53 -94 -1 -5 2 -8 8 -8 5 0 10 -7 10 -15 0 -8 4 -15 9 -15 5 0 14
-13 21 -30 7 -16 16 -30 21 -30 5 0 9 -6 9 -14 0 -8 3 -16 8 -18 10 -4 57 -70
65 -90 3 -10 11 -18 17 -18 5 0 10 -7 10 -15 0 -8 5 -15 10 -15 6 0 10 -5 10
-10 0 -6 11 -22 25 -36 14 -14 25 -28 25 -32 0 -4 13 -21 28 -39 15 -17 42
-50 61 -72 59 -74 211 -243 211 -237 0 3 20 -16 45 -42 25 -25 45 -50 45 -55
0 -4 5 -5 10 -2 6 3 10 1 10 -5 0 -6 19 -27 41 -48 23 -20 58 -53 79 -72 160
-147 493 -410 521 -410 5 0 9 -4 9 -10 0 -5 6 -10 13 -10 7 0 22 -8 33 -18 24
-21 47 -35 99 -63 22 -12 42 -25 45 -29 3 -3 12 -9 20 -13 8 -4 38 -20 65 -37
107 -64 511 -258 527 -252 4 1 8 -3 8 -9 0 -5 5 -7 10 -4 6 3 10 2 10 -3 0 -5
6 -9 13 -9 10 0 140 -45 212 -73 64 -26 218 -70 226 -65 5 4 9 1 9 -5 0 -7 6
-10 14 -7 8 3 17 3 20 -1 7 -7 30 -13 61 -15 11 -1 22 -5 25 -8 3 -4 19 -8 35
-10 17 -2 35 -7 41 -11 6 -5 31 -11 55 -14 24 -3 48 -10 53 -14 5 -5 15 -6 22
-3 8 3 14 -1 14 -8 0 -11 3 -11 10 1 5 8 10 10 10 4 0 -6 8 -11 18 -11 50 0
63 -4 56 -15 -5 -10 -4 -10 5 -2 16 14 63 6 54 -10 -4 -6 1 -5 10 3 15 12 17
11 18 -5 0 -11 3 -14 6 -6 2 6 11 12 19 12 9 0 12 -4 9 -10 -3 -5 -1 -10 4
-10 6 0 11 5 11 11 0 5 5 7 10 4 6 -4 8 -10 5 -15 -3 -5 5 -7 17 -4 27 7 30 7
88 -1 25 -3 50 -7 57 -7 7 -1 10 -5 7 -10 -3 -4 211 -8 474 -8 385 0 485 3
506 14 14 7 36 13 49 12 12 -1 25 2 28 7 3 5 17 10 30 11 13 2 44 7 69 11 25
4 52 9 60 10 8 1 26 5 40 8 14 4 42 9 64 12 21 3 43 8 49 12 5 3 26 8 45 10
19 2 67 12 106 23 39 11 82 21 96 24 23 4 115 30 150 43 8 4 20 7 25 7 17 3
129 38 145 47 17 8 81 33 93 35 4 1 9 3 12 4 3 1 8 3 13 5 4 1 21 8 37 15 17
7 35 14 41 15 6 2 28 11 49 21 20 9 43 17 51 17 8 0 14 4 14 8 0 4 10 11 23
15 32 9 99 40 202 92 152 76 169 86 303 167 45 28 90 55 100 60 40 24 138 91
156 107 11 10 28 20 38 24 10 3 18 10 18 15 0 5 7 9 15 9 8 0 15 4 15 8 0 4
12 15 28 24 29 18 198 156 302 246 79 70 283 274 370 372 36 39 71 78 78 85 6
8 12 17 12 21 0 3 9 14 19 23 10 9 69 84 130 166 60 83 117 158 126 168 8 9
12 17 9 17 -3 0 9 18 26 40 17 22 28 40 23 40 -4 0 -3 4 2 8 15 10 75 107 75
120 0 5 3 12 8 14 10 4 67 103 112 193 19 39 40 73 45 77 7 5 7 8 0 8 -6 0 -6
3 0 8 6 4 19 27 29 52 10 25 22 53 27 63 5 10 7 22 4 27 -4 6 1 10 9 10 13 0
14 3 4 19 -9 15 -9 23 3 37 9 11 9 15 2 10 -16 -9 -17 8 -1 37 10 20 10 21 -6
8 -9 -8 -19 -11 -23 -7 -3 3 -2 6 4 6 6 0 13 9 16 21 4 14 -1 23 -16 28 -12 5
-25 7 -28 5 -3 -2 -6 3 -6 11 0 11 4 12 14 4 7 -7 13 -7 13 -2 0 5 -12 15 -26
22 -26 12 -26 12 -8 33 17 19 17 21 2 15 -10 -3 -17 -3 -16 1 5 17 -15 52 -28
52 -8 0 -12 5 -9 10 3 6 1 10 -5 10 -6 0 -8 5 -4 13 5 7 0 6 -11 -3 -15 -12
-17 -12 -10 -1 6 11 4 13 -8 8 -9 -3 -16 -3 -16 1 4 25 -4 40 -26 50 -17 8
-23 17 -20 32 3 18 2 20 -10 10 -11 -9 -12 -7 -9 8 3 10 -2 24 -11 32 -14 12
-18 12 -26 -1 -7 -10 -8 -6 -4 12 5 19 2 28 -9 32 -9 4 -16 1 -16 -5 0 -6 -3
-8 -6 -5 -4 4 -1 13 6 22 10 12 10 15 -4 15 -10 0 -14 5 -11 10 3 6 2 10 -4
10 -5 0 -12 -6 -15 -12 -3 -7 -3 -3 0 10 4 16 1 22 -11 22 -11 0 -15 5 -11 16
3 8 2 12 -4 9 -6 -3 -10 4 -10 17 0 18 -2 20 -10 8 -8 -13 -10 -12 -10 4 0 10
-8 25 -17 33 -17 14 -17 14 1 8 20 -6 20 -6 0 17 -36 43 -42 47 -48 40 -4 -3
-9 4 -13 16 -3 12 -9 19 -14 16 -5 -3 -9 0 -9 6 0 6 -5 8 -12 4 -8 -5 -9 -2
-5 10 4 9 3 15 -2 11 -6 -3 -14 2 -19 10 -4 9 -18 17 -29 18 -17 1 -20 5 -12
19 7 13 6 16 -4 12 -8 -3 -21 2 -30 10 -12 12 -17 13 -20 3 -3 -7 -6 -4 -6 6
-1 10 -5 15 -11 12 -5 -3 -10 -1 -10 5 0 6 -4 9 -9 5 -5 -3 -12 -1 -16 5 -4 6
-11 8 -16 5 -5 -4 -9 -1 -9 6 0 6 -8 9 -20 6 -10 -3 -18 0 -17 5 1 6 -7 12
-18 14 -11 1 -21 8 -23 13 -2 6 -8 11 -13 11 -6 0 -7 -6 -4 -12 4 -7 -1 -4
-10 7 -9 11 -24 20 -33 20 -9 1 -16 6 -15 11 1 6 -4 11 -12 11 -8 0 -12 -5 -9
-11 3 -6 -2 -2 -10 8 -10 13 -16 15 -16 6 0 -8 -8 -4 -20 10 -18 21 -20 21
-21 4 0 -16 -2 -16 -9 4 -5 12 -12 22 -15 22 -4 0 -3 -6 1 -12 4 -7 -3 -4 -16
7 -13 11 -20 14 -16 7 7 -12 4 -12 -15 -1 -13 7 -26 13 -29 13 -3 1 -4 4 -3 7
1 3 -8 4 -21 2 -13 -3 -27 0 -30 6 -4 6 -12 11 -17 11 -6 0 -7 -5 -3 -12 4 -7
3 -8 -4 -4 -7 4 -12 14 -12 22 0 8 -5 14 -11 14 -5 0 -8 -4 -5 -9 7 -10 -9 -8
-36 3 -9 4 -21 5 -27 2 -5 -4 -12 -2 -15 2 -3 5 -18 8 -33 6 -31 -3 -56 13
-46 29 3 6 1 7 -6 3 -6 -4 -9 -12 -6 -17 3 -5 -1 -6 -9 -3 -9 3 -16 11 -16 16
0 6 -6 6 -14 -1 -11 -9 -15 -9 -19 1 -4 9 -6 8 -6 -3 -1 -9 -9 -23 -18 -30
-16 -13 -17 -12 -4 4 8 10 9 17 3 17 -6 0 -14 -5 -17 -10 -4 -6 -11 -8 -16 -5
-5 3 -6 0 -3 -8 3 -8 -3 -20 -13 -28 -17 -13 -17 -13 -3 5 14 18 14 19 -9 7
-13 -7 -21 -8 -17 -3 3 6 1 12 -6 14 -14 5 -19 48 -5 48 6 0 7 3 4 7 -4 3 -1
13 6 21 9 13 9 14 0 8 -16 -9 -17 6 -2 21 8 8 7 13 -2 18 -8 6 -10 4 -4 -6 5
-8 4 -11 0 -6 -11 9 -13 57 -3 58 19 3 24 5 36 12 7 5 12 4 12 -3 0 -7 5 -6
14 2 8 7 11 17 8 22 -3 5 2 6 12 3 11 -5 15 -3 10 5 -4 6 1 17 11 25 18 13 18
13 -1 13 -16 0 -17 2 -4 10 13 8 13 10 -2 10 -9 0 -20 9 -23 20 -3 11 -11 20
-16 20 -6 0 -8 4 -5 9 3 5 -5 12 -18 15 -13 3 -32 9 -43 12 -16 6 -16 5 2 -10
19 -16 19 -16 -8 -4 l-28 12 23 13 c16 8 18 12 7 13 -9 0 -16 7 -16 15 0 10 4
12 12 5 9 -7 17 -5 26 7 13 16 12 17 -3 5 -16 -13 -17 -11 -13 17 2 17 -1 34
-7 37 -7 5 -8 2 -3 -7 5 -8 4 -10 0 -6 -12 10 -16 39 -5 32 5 -3 12 0 16 7 4
7 4 10 -1 6 -4 -4 -16 -3 -26 3 -15 8 -18 6 -13 -8 5 -15 4 -15 -4 -3 -8 10
-7 19 1 29 10 12 9 14 -7 8 -14 -6 -17 -4 -12 8 3 9 2 14 -3 10 -5 -3 -11 -2
-14 2 -2 5 -2 3 -1 -4 2 -7 -1 -15 -6 -18 -6 -4 -10 4 -10 16 0 17 -3 19 -14
10 -10 -8 -16 -9 -21 -1 -3 6 -11 7 -17 4 -7 -4 -8 -2 -4 5 6 9 12 9 24 -1 14
-10 15 -10 5 2 -15 16 -53 21 -70 8 -7 -5 -14 -5 -18 2 -3 5 -12 10 -18 10 -7
0 -6 -4 3 -10 13 -8 12 -10 -3 -10 -10 0 -15 -4 -12 -10 3 -5 1 -10 -4 -10 -6
0 -11 5 -11 10 0 6 -6 10 -12 9 -26 -3 -39 1 -33 11 3 6 1 10 -5 10 -7 0 -10
-6 -7 -13 3 -8 1 -20 -5 -28 -8 -11 -9 -10 -4 4 3 9 1 17 -5 17 -6 0 -7 4 -4
10 9 14 16 54 8 46 -3 -3 -13 0 -22 6 -12 9 -11 7 2 -8 17 -20 17 -22 0 -35
-16 -13 -17 -12 -4 4 12 16 9 22 -12 18 -5 -1 -6 3 -3 8 4 5 2 13 -4 16 -8 5
-7 11 1 21 11 14 2 19 -24 15 -5 -1 -6 3 -2 9 3 6 11 8 16 5 5 -3 6 1 3 10 -5
11 -10 13 -17 6 -7 -7 -16 -7 -29 0 -20 11 -25 29 -7 29 5 0 8 -4 5 -9 -3 -5
1 -11 9 -15 17 -6 21 9 5 19 -6 4 -7 11 -4 17 4 7 2 8 -4 4 -16 -10 -54 12
-46 27 4 7 -3 3 -15 -8 -12 -11 -22 -15 -21 -10 4 20 -2 60 -7 48 -2 -7 -9
-13 -14 -13 -5 0 -4 10 2 23 11 20 11 21 -4 8 -16 -13 -21 -9 -18 14 1 6 -5 2
-12 -7 -8 -10 -18 -18 -23 -18 -4 0 -3 5 4 12 19 19 14 31 -9 25 -16 -4 -18
-3 -8 9 15 18 -11 20 -30 2 -11 -11 -11 -9 -2 10 8 15 8 22 1 22 -6 0 -9 4 -5
9 3 5 1 12 -4 16 -6 3 -8 -6 -5 -22 3 -18 1 -23 -4 -15 -5 7 -15 12 -23 10
-10 -2 -13 5 -11 22 3 24 2 24 -13 5 -14 -18 -14 -18 -9 -1 6 16 4 17 -13 8
-25 -14 -37 -4 -20 16 9 13 9 14 0 8 -8 -4 -13 -2 -13 5 0 7 -6 4 -14 -6 -13
-18 -14 -18 -9 7 4 23 1 28 -21 34 -15 3 -23 11 -19 18 3 6 1 6 -8 -1 -18 -18
-42 -16 -35 2 3 8 2 14 -2 14 -4 -1 -14 -1 -22 0 -13 1 -13 2 0 11 9 6 10 10
3 10 -20 0 -24 -18 -6 -29 15 -8 16 -12 5 -23 -7 -7 -12 -8 -10 -3 2 6 -9 24
-24 40 -16 16 -28 34 -28 38 0 5 -6 7 -12 4 -7 -2 -22 0 -33 6 -18 9 -19 9 -6
-7 12 -14 12 -16 -3 -10 -17 6 -22 30 -7 36 4 2 1 11 -8 20 -16 16 -17 16 -17
-2 0 -10 5 -16 10 -13 5 3 6 1 2 -5 -8 -13 -36 -5 -36 10 0 5 6 6 13 2 18 -12
-13 27 -46 55 -18 15 -26 29 -22 40 5 12 3 13 -6 4 -9 -9 -17 -5 -35 15 -13
15 -24 21 -24 15 0 -7 6 -13 13 -13 9 0 9 -2 -1 -9 -8 -4 -13 -11 -13 -15 3
-19 0 -26 -10 -26 -8 0 -8 4 0 14 8 10 9 16 1 21 -5 3 -10 1 -10 -6 0 -22 -13
-1 -15 26 -2 14 1 23 7 19 5 -3 7 -13 4 -21 -3 -8 -2 -12 3 -9 5 3 11 14 13
24 5 18 3 19 -44 13 -8 -1 -4 -28 5 -37 10 -11 8 -24 -4 -24 -5 0 -8 4 -4 9 3
5 1 12 -4 15 -12 8 -8 30 9 52 14 18 14 18 -10 2 -15 -9 -24 -24 -22 -34 2
-15 1 -16 -7 -4 -5 8 -7 18 -4 24 4 5 -1 7 -11 3 -11 -4 -15 -3 -11 4 4 5 12
8 18 6 22 -7 35 16 19 32 -15 16 -43 24 -39 13 2 -7 -7 -12 -18 -12 -3 0 -1 8
4 18 6 11 6 24 0 33 -6 10 -9 10 -9 2 0 -7 -5 -13 -11 -13 -5 0 -8 4 -4 9 3 6
-4 15 -15 21 -11 6 -20 7 -20 3 0 -4 -4 -2 -9 6 -6 9 -8 5 -7 -15 1 -16 5 -35
9 -41 5 -7 4 -13 -1 -13 -12 0 -24 29 -17 40 3 5 1 11 -5 15 -7 4 -6 13 1 28
8 16 3 13 -16 -8 -19 -22 -23 -24 -16 -8 11 23 0 40 -18 28 -6 -3 -14 2 -19
11 -8 15 -10 15 -15 0 -5 -11 -3 -15 5 -10 7 5 8 3 3 -6 -6 -9 -4 -11 5 -5 9
6 11 4 5 -6 -8 -12 -6 -12 8 0 10 8 20 11 23 8 3 -3 -4 -11 -16 -17 -19 -10
-24 -9 -37 9 -8 12 -19 18 -25 15 -6 -4 -5 -10 3 -16 11 -8 11 -9 -1 -5 -8 2
-14 10 -13 16 2 6 -1 11 -5 11 -5 0 -9 7 -9 15 0 8 4 15 9 15 4 0 8 -6 8 -13
0 -21 26 -16 27 4 1 15 -4 18 -27 15 -32 -4 -74 19 -65 35 4 5 2 9 -3 9 -6 0
-13 -7 -16 -16 -6 -16 -26 -11 -26 7 0 6 4 7 10 4 6 -4 7 1 3 11 -4 11 -3 15
5 10 7 -4 10 1 9 14 -1 18 -3 19 -13 6 -6 -9 -14 -13 -18 -9 -4 4 -4 -1 -1
-12 5 -14 -1 -11 -19 10 -14 17 -26 34 -26 39 0 4 -7 5 -15 2 -11 -4 -15 0
-13 11 2 10 -4 18 -12 18 -8 1 -14 7 -12 14 1 7 -2 9 -8 6 -8 -5 -6 -13 4 -24
9 -10 16 -24 16 -32 -1 -10 -5 -9 -15 5 -14 18 -14 18 -12 -1 1 -21 35 -27 48
-9 4 4 10 3 13 -3 4 -6 2 -11 -4 -11 -6 0 -8 -5 -4 -11 4 -8 9 -7 16 2 8 11 9
10 5 -3 -3 -9 1 -22 9 -28 8 -7 14 -9 14 -4 0 4 6 -1 14 -12 16 -20 8 -36 -20
-40 -13 -2 -13 1 3 18 16 19 16 21 1 15 -10 -3 -20 -2 -23 4 -4 5 -11 7 -16 4
-5 -4 -9 -1 -9 4 0 6 5 11 11 11 5 0 7 5 4 10 -5 8 -11 8 -20 0 -10 -9 -19 -6
-34 9 -29 29 -28 29 -46 6 -16 -20 -16 -20 -6 2 7 14 8 24 1 28 -5 3 -10 1
-10 -4 0 -6 -5 -11 -11 -11 -6 0 -7 5 -2 13 4 6 9 20 10 31 3 16 1 17 -12 6
-8 -7 -12 -17 -8 -23 3 -6 1 -7 -6 -3 -6 4 -8 12 -5 18 5 7 1 9 -9 5 -9 -3
-19 -2 -22 4 -4 5 -3 9 2 8 19 -3 33 2 33 11 0 6 -8 10 -17 8 -14 -2 -18 3
-16 25 2 23 0 27 -11 17 -10 -8 -16 -8 -21 0 -3 6 -11 7 -17 4 -7 -4 -8 -2 -4
5 6 9 11 9 21 1 9 -7 16 -6 24 3 13 17 5 27 -23 28 -19 0 -19 1 -3 8 10 4 17
11 16 16 -5 18 -24 33 -34 27 -5 -2 -5 1 2 8 18 19 -6 41 -32 28 -18 -8 -19
-8 -3 5 13 10 14 17 6 25 -8 8 -8 15 2 27 10 12 10 15 -4 15 -10 0 -15 4 -11
9 3 5 -1 16 -10 24 -8 8 -12 24 -10 36 2 11 0 23 -6 26 -12 8 -12 25 2 25 5 0
7 -4 4 -10 -3 -5 -1 -10 4 -10 17 0 13 20 -4 26 -14 6 -13 8 2 20 16 12 16 15
3 23 -8 6 -11 13 -8 17 4 4 19 -1 32 -10 29 -19 36 -20 36 -6 0 6 -3 9 -7 9
-23 -4 -25 3 -6 16 12 8 23 25 25 38 2 15 9 21 23 20 11 -1 14 0 7 3 -6 3 -9
11 -6 16 5 7 2 8 -7 2 -8 -5 -17 -9 -21 -9 -13 0 -49 -55 -43 -65 9 -14 -8
-12 -30 3 -14 11 -15 16 -5 22 9 5 11 4 6 -3 -4 -7 -2 -12 5 -12 7 0 9 10 7
25 -6 28 6 43 18 24 5 -8 3 -9 -6 -4 -9 6 -11 4 -6 -4 10 -15 21 -6 21 17 0
10 7 16 17 14 9 -1 20 2 23 8 5 8 14 5 28 -7 11 -10 17 -12 12 -4 -6 11 -3 13
12 9 11 -3 26 -2 34 2 16 9 43 -7 52 -30 4 -12 6 -12 6 2 1 24 51 51 51 27 0
-5 -4 -8 -8 -5 -4 2 -14 0 -22 -5 -13 -9 -13 -10 0 -8 8 1 25 -2 37 -7 22 -9
22 -9 2 -34 -11 -15 -17 -18 -13 -7 4 10 1 17 -6 17 -6 0 -9 -4 -5 -9 3 -6 -2
-14 -12 -19 -13 -8 -10 -10 14 -9 18 1 30 4 28 6 -9 8 17 41 27 35 6 -4 17 1
24 10 8 11 14 13 19 7 3 -6 11 -11 18 -11 6 0 2 7 -9 15 -17 13 -17 14 -1 15
9 0 17 5 17 10 0 7 -6 7 -20 0 -14 -7 -20 -7 -20 0 0 5 7 10 15 10 8 0 15 6
15 13 0 8 4 7 10 -3 7 -11 10 -12 10 -2 0 10 4 9 16 -3 12 -12 19 -13 30 -4
11 9 14 8 14 -2 0 -8 6 -5 14 7 11 14 12 22 3 33 -10 12 -9 12 11 2 22 -12 23
-11 13 8 -10 17 -8 19 8 16 15 -3 18 0 14 12 -5 12 -2 15 9 10 12 -4 14 -1 11
14 -3 10 1 27 8 36 11 13 11 17 2 20 -9 3 -10 10 -3 23 12 23 10 70 -4 89 -8
11 -8 13 0 8 7 -4 15 0 18 9 3 8 2 12 -4 9 -6 -3 -10 -2 -10 4 0 5 8 12 18 14
16 4 16 5 0 6 -10 0 -18 6 -18 12 0 6 7 8 17 5 15 -6 14 -4 -2 14 -16 18 -17
20 -2 14 10 -3 17 -1 17 5 0 6 -4 11 -10 11 -5 0 -10 5 -10 11 0 5 5 7 11 3 8
-5 10 1 7 19 -3 15 -1 24 4 21 5 -3 7 6 4 20 -3 15 -1 24 5 21 5 -4 7 -11 4
-16 -3 -5 1 -6 9 -3 14 5 14 8 1 21 -18 17 -11 33 13 34 14 0 13 2 -3 9 -11 5
-14 9 -6 9 11 1 11 4 0 18 -10 11 -10 14 -1 9 8 -5 12 0 12 14 0 14 4 19 13
14 6 -4 9 -4 5 1 -4 4 -2 15 5 24 11 14 10 14 -5 2 -24 -18 -23 -5 2 26 22 28
25 43 10 43 -6 0 -9 -3 -9 -7 3 -20 -2 -33 -12 -33 -8 0 -8 5 1 15 10 12 10
15 -1 15 -9 1 -8 4 4 11 14 8 15 14 7 24 -9 11 -7 12 9 8 12 -3 18 -10 14 -16
-3 -6 -1 -7 5 -3 9 5 7 15 -6 34 -12 19 -13 24 -3 17 11 -6 13 -4 7 10 -5 15
-4 16 8 6 11 -9 14 -9 13 1 -1 36 4 62 11 52 5 -9 11 -8 20 2 8 9 9 14 2 14
-7 0 -4 7 4 16 9 8 16 21 16 29 0 7 6 16 13 18 10 4 10 6 0 6 -7 1 -13 11 -13
24 0 18 2 19 11 7 9 -13 10 -13 6 0 -2 8 -11 14 -20 12 -10 -2 -14 4 -12 15 4
26 -14 55 -28 46 -8 -4 -8 -2 1 9 9 11 10 18 2 23 -5 3 -10 12 -10 18 0 9 2 9
8 0 5 -8 13 -6 29 7 20 16 21 19 6 24 -9 4 -18 4 -21 1 -3 -3 0 -5 7 -5 7 0 9
-5 5 -11 -4 -7 -10 -7 -16 -1 -14 14 -1 32 21 32 21 0 44 23 34 33 -3 4 -1 7
5 7 5 0 12 -5 14 -12 3 -8 6 -7 10 4 6 14 -10 16 -66 9 -4 0 -5 -8 -2 -17 3
-8 2 -12 -4 -9 -9 6 -6 63 5 74 4 3 12 -2 19 -12 7 -9 20 -17 29 -17 12 0 15
9 12 39 -3 34 0 39 16 38 21 -1 25 -13 7 -19 -9 -3 -7 -10 7 -24 19 -19 19
-19 12 0 -6 14 0 27 19 47 24 25 25 29 10 35 -14 5 -15 9 -4 15 10 7 11 9 0 9
-7 0 -10 5 -7 10 5 8 12 7 23 -2 12 -9 12 -6 -2 9 -17 21 -18 23 -2 29 14 5
15 9 5 15 -8 4 -10 11 -6 15 3 4 14 1 22 -6 9 -7 15 -9 13 -4 -1 5 3 19 10 30
6 12 8 25 4 29 -4 5 1 5 10 2 10 -3 19 -3 22 1 11 18 -34 9 -51 -10 -10 -12
-12 -18 -4 -13 9 5 12 3 9 -5 -5 -15 -46 -21 -54 -8 -3 4 1 8 8 8 7 0 21 12
31 25 14 20 15 24 2 19 -24 -10 -17 6 8 17 22 9 22 9 -2 5 -14 -3 -32 0 -40 7
-12 10 -13 9 -6 -2 5 -10 4 -12 -4 -7 -22 14 -1 25 40 21 23 -2 38 -1 35 2 -5
6 -27 10 -66 12 -9 1 -11 4 -5 9 16 12 16 39 0 46 -8 3 -15 11 -15 17 0 8 4 8
13 1 10 -8 16 -6 25 9 12 19 6 25 -22 20 -15 -3 -33 18 -31 36 1 10 7 31 14
46 14 37 14 37 -9 32 -13 -3 -20 2 -20 12 0 9 -6 13 -15 10 -8 -4 -17 -2 -20
2 -9 16 24 20 39 6 12 -13 15 -13 20 0 3 8 2 14 -2 14 -20 -3 -33 2 -27 11 3
6 1 10 -5 10 -6 0 -8 5 -5 10 4 6 3 10 -2 9 -19 -3 -32 2 -57 26 -14 14 -24
22 -21 18 3 -3 -2 -15 -12 -25 -9 -10 -13 -21 -10 -25 4 -4 13 1 20 10 8 12
16 14 27 7 11 -7 11 -10 2 -10 -7 0 -10 -5 -6 -11 5 -8 9 -8 14 1 5 8 9 7 13
-5 4 -9 3 -14 -3 -10 -6 4 -10 3 -9 -2 1 -4 0 -10 -1 -13 -1 -3 -3 -17 -4 -32
-3 -24 -1 -26 13 -15 14 11 15 10 1 -7 -8 -11 -10 -17 -3 -13 8 5 11 1 8 -13
-2 -11 1 -22 6 -25 5 -4 7 -11 3 -16 -3 -6 2 -20 13 -32 18 -21 18 -21 -1 -7
-11 8 -17 10 -13 3 4 -6 2 -15 -4 -18 -5 -4 -8 -14 -5 -24 5 -12 2 -11 -9 3
-10 14 -12 23 -4 32 6 8 6 14 0 18 -5 4 -12 -3 -16 -14 -3 -11 -11 -20 -16
-20 -6 0 -3 10 5 22 20 28 21 44 1 28 -8 -7 -15 -8 -15 -4 0 5 9 15 21 22 12
7 18 16 15 19 -3 3 -14 0 -23 -8 -17 -13 -17 -12 -4 4 13 17 12 18 -15 12 -25
-5 -26 -4 -6 4 24 11 31 27 8 18 -8 -3 -20 1 -26 9 -9 10 -9 14 -1 14 6 0 11
-5 11 -11 0 -5 5 -7 12 -3 7 5 5 11 -7 21 -11 7 -14 13 -8 13 7 0 15 -4 18
-10 3 -5 12 -10 18 -10 7 1 1 9 -12 20 -12 11 -26 18 -30 15 -4 -2 -8 2 -8 10
0 11 3 12 14 3 11 -9 18 -7 31 6 16 17 16 18 -5 12 -28 -9 -39 10 -19 33 9 10
13 21 10 24 -4 4 -12 0 -18 -8 -8 -11 -15 -12 -26 -4 -13 9 -13 10 2 6 9 -3
19 1 22 9 3 8 1 14 -5 14 -6 0 -9 6 -6 14 3 8 -1 20 -9 27 -8 7 -13 18 -10 26
4 9 1 11 -6 7 -7 -5 -9 -2 -5 8 6 17 -8 19 -30 5 -17 -11 -16 -2 1 15 11 12
10 16 -10 25 -18 8 -22 8 -17 0 3 -7 -3 -3 -15 7 -12 11 -22 25 -22 33 0 7 -7
13 -15 13 -8 0 -12 6 -9 14 3 8 0 17 -7 22 -8 5 -10 3 -4 -6 5 -9 4 -11 -3 -6
-7 4 -12 14 -12 22 0 8 -5 14 -11 14 -6 0 -17 7 -26 15 -8 8 -18 13 -23 10
-10 -6 -7 21 3 31 14 14 7 26 -8 14 -20 -17 -32 -5 -15 15 15 19 -3 47 -29 43
-10 -2 -15 3 -13 15 3 15 -14 23 -41 18 -5 -1 -6 3 -2 9 3 6 12 8 18 4 7 -3 3
1 -8 10 -11 8 -26 20 -32 26 -7 6 -13 8 -13 5 0 -4 -7 1 -16 9 -8 9 -22 16
-30 16 -8 0 -12 5 -9 10 3 6 1 10 -5 10 -6 0 -8 5 -5 10 3 6 -1 10 -9 10 -9 0
-16 5 -16 11 0 5 -4 7 -10 4 -5 -3 -10 1 -10 9 0 19 -16 21 -23 4 -3 -7 -6 -3
-6 10 -1 19 -4 21 -20 12 -17 -8 -19 -7 -16 8 2 10 -2 19 -8 20 -51 3 -94 32
-81 53 3 5 -3 6 -12 2 -13 -5 -15 -3 -9 8 8 12 6 12 -8 0 -15 -12 -17 -12 -11
2 6 16 -10 18 -33 4 -7 -5 -13 -5 -13 0 -1 4 -7 -3 -14 -17 -8 -14 -12 -29 -8
-35 3 -5 -3 -3 -13 5 -17 14 -18 13 -12 -2 4 -12 1 -18 -9 -18 -9 0 -13 5 -9
13 4 6 0 4 -8 -5 -9 -12 -17 -14 -24 -7 -7 7 -15 5 -27 -6 -12 -12 -16 -13
-16 -3 0 10 -3 9 -10 -2 -6 -10 -10 -11 -10 -2 0 6 -8 12 -17 12 -15 0 -16 -2
-3 -10 12 -8 10 -9 -7 -7 -12 2 -26 7 -30 12 -5 4 -2 5 4 1 9 -5 11 -2 6 9 -4
13 -8 14 -14 4 -4 -7 -6 -16 -3 -20 2 -4 0 -11 -6 -14 -6 -4 -10 -3 -9 2 3 20
-2 27 -11 13 -6 -10 -10 -11 -10 -2 0 6 -9 12 -20 12 -11 0 -20 5 -20 11 0 5
5 7 12 3 7 -4 8 -3 4 4 -9 16 -11 15 -32 -5 -16 -16 -16 -16 -10 3 4 14 2 21
-8 21 -8 0 -12 -7 -10 -16 4 -14 3 -14 -7 0 -12 16 -14 16 -28 0 -9 -9 -13
-12 -9 -6 12 18 -3 26 -20 12 -13 -10 -14 -9 -7 3 7 12 6 13 -6 3 -12 -10 -18
-10 -27 -1 -9 9 -12 9 -12 -1 0 -9 -5 -8 -16 3 -8 9 -20 14 -25 11 -5 -4 -9
-1 -9 4 0 6 -9 11 -20 11 -11 0 -20 6 -20 13 0 8 -4 7 -10 -3 -6 -10 -10 -11
-10 -2 0 6 -7 12 -15 12 -8 0 -15 5 -15 10 0 6 -9 10 -21 10 -11 0 -18 4 -14
9 3 5 1 12 -5 16 -6 4 -8 11 -5 16 4 5 -2 12 -12 16 -10 4 -26 17 -36 30 -20
25 -65 54 -53 34 4 -6 2 -11 -3 -11 -6 0 -11 7 -11 15 0 14 -12 19 -32 16 -5
0 -8 4 -8 9 0 6 -6 10 -14 10 -8 0 -18 5 -22 12 -5 7 -3 8 6 3 9 -5 11 -4 6 3
-5 8 -13 9 -26 2 -14 -7 -22 -5 -34 13 -16 20 -17 20 -11 2 5 -18 3 -17 -13 3
-10 13 -21 19 -25 15 -10 -9 -57 -12 -57 -3 0 8 -19 9 -38 2z m323 -122 c10
-11 16 -20 13 -20 -3 0 -13 9 -23 20 -10 11 -16 20 -13 20 3 0 13 -9 23 -20z
m605 -200 c0 -5 -5 -10 -11 -10 -5 0 -7 5 -4 10 3 6 8 10 11 10 2 0 4 -4 4
-10z m565 -239 c3 -5 2 -12 -3 -15 -5 -3 -9 1 -9 9 0 17 3 19 12 6z m362 -452
c-14 -8 -16 -14 -6 -25 6 -7 16 -11 22 -7 6 3 7 1 3 -5 -4 -7 -3 -12 2 -12 5
0 9 -7 9 -15 0 -9 -6 -14 -12 -11 -6 2 -12 -2 -12 -9 0 -10 5 -11 19 -4 10 6
16 14 13 19 -3 5 -1 11 5 15 15 9 12 -31 -3 -44 -8 -6 -18 -7 -22 -3 -5 4 -5
1 -1 -6 4 -7 12 -9 18 -6 6 4 8 1 6 -7 -3 -8 -11 -13 -17 -11 -7 1 -10 -2 -6
-8 3 -6 10 -8 15 -5 4 3 13 -1 18 -8 13 -15 5 -57 -10 -57 -6 0 -7 7 -4 16 5
14 4 15 -8 5 -18 -15 -14 -67 5 -63 8 2 21 11 29 20 14 14 13 15 -3 3 -9 -8
-21 -11 -24 -7 -9 9 18 27 32 22 6 -2 8 -10 6 -17 -2 -8 -4 -20 -4 -26 0 -7
-9 -16 -20 -19 -20 -6 -19 -7 4 -19 13 -7 27 -11 30 -9 9 5 20 -26 13 -37 -3
-5 -9 -7 -14 -4 -15 9 -18 -21 -4 -40 10 -13 11 -22 3 -32 -6 -7 -8 -13 -4
-13 4 0 3 -6 -2 -12 -13 -18 -11 -37 5 -47 11 -6 11 -10 0 -18 -16 -13 -48
-13 -48 0 0 5 -6 4 -14 -2 -8 -7 -13 -26 -11 -46 2 -40 -5 -44 -23 -14 -10 15
-11 24 -3 32 19 19 12 31 -8 13 -19 -18 -47 -14 -36 5 11 16 -7 10 -20 -8 -9
-13 -14 -13 -20 -3 -6 9 -4 11 5 5 10 -6 12 -4 7 8 -3 9 -3 16 1 16 21 -3 32
2 26 13 -4 6 -3 8 4 4 6 -3 9 -15 7 -26 -5 -24 8 -26 25 -5 7 8 9 15 5 15 -5
0 -1 8 8 18 13 15 14 21 4 31 -9 10 -8 11 6 5 9 -3 17 -11 16 -18 -3 -24 1
-37 11 -31 6 4 8 11 5 16 -3 5 0 6 8 3 7 -2 14 1 14 8 0 7 4 21 8 31 6 14 3
16 -11 11 -17 -6 -17 -5 1 10 19 15 19 16 1 9 -15 -5 -18 -3 -14 9 4 9 1 22
-5 29 -10 11 -9 11 4 1 14 -10 18 -10 23 3 3 9 2 14 -3 11 -4 -3 -17 1 -27 10
-18 14 -18 15 2 5 21 -10 34 -6 34 10 0 5 -6 7 -12 5 -7 -1 -10 -1 -5 1 13 8
7 22 -14 28 -12 4 -18 12 -15 21 3 8 1 14 -4 14 -6 0 -10 -4 -10 -10 0 -5 -9
-2 -19 7 -11 9 -18 21 -14 25 3 5 -3 15 -13 22 -13 10 -14 15 -4 21 9 5 11 4
6 -3 -7 -11 -3 -14 26 -16 7 -1 13 8 13 19 0 11 7 20 15 21 42 3 44 5 20 17
-14 7 -25 19 -26 27 -1 8 -2 18 -4 23 -1 4 -3 22 -4 40 -1 17 -7 31 -13 30
-14 -3 -11 20 5 39 6 8 10 17 8 20 -1 3 2 1 8 -4 8 -6 6 -12 -7 -19z m-2517
-103 c0 -11 -19 -15 -25 -6 -3 5 1 10 9 10 9 0 16 -2 16 -4z m2610 -66 c0 -5
-5 -10 -11 -10 -5 0 -7 5 -4 10 3 6 8 10 11 10 2 0 4 -4 4 -10z m-145 -60 c3
-5 1 -10 -4 -10 -6 0 -11 5 -11 10 0 6 2 10 4 10 3 0 8 -4 11 -10z m25 -64
c-7 -7 -13 -7 -20 0 -6 6 -3 10 10 10 13 0 16 -4 10 -10z m39 -9 c8 -10 7 -14
-2 -14 -8 0 -14 6 -14 14 0 7 1 13 2 13 2 0 8 -6 14 -13z m-74 -127 c3 -6 -1
-7 -9 -4 -18 7 -21 14 -7 14 6 0 13 -4 16 -10z m105 -15 c0 -12 -19 -12 -23 0
-4 9 -1 12 9 8 7 -3 14 -7 14 -8z m-77 -13 c4 8 6 7 6 -4 1 -10 -3 -18 -8 -18
-5 0 -15 8 -22 18 -13 15 -12 16 3 4 13 -10 17 -10 21 0z m-2239 -98 c3 -8 2
-12 -4 -9 -6 3 -10 10 -10 16 0 14 7 11 14 -7z m2197 -7 c-10 -9 -11 -8 -5 6
3 10 9 15 12 12 3 -3 0 -11 -7 -18z m-2080 -37 c6 0 7 5 3 12 -4 7 -3 8 4 4 6
-4 8 -14 5 -23 -4 -11 -3 -14 5 -9 7 4 12 14 12 22 0 8 4 14 10 14 5 0 7 -7 4
-15 -5 -11 -2 -13 10 -9 9 3 16 1 16 -5 0 -6 5 -11 11 -11 5 0 7 5 4 10 -10
17 2 11 16 -7 7 -10 9 -15 5 -11 -5 4 -15 3 -23 -3 -7 -7 -13 -7 -13 -2 0 6
-12 9 -27 8 -29 -2 -64 20 -62 39 0 6 3 6 6 -1 2 -7 9 -13 14 -13z m2144 -29
c3 -5 1 -12 -5 -16 -5 -3 -10 1 -10 9 0 18 6 21 15 7z m-1906 -385 c9 -11 9
-16 -1 -22 -7 -4 -10 -4 -6 1 4 4 3 14 -3 22 -6 7 -9 13 -6 13 2 0 10 -6 16
-14z m1594 -731 c-3 -9 -8 -14 -10 -11 -3 3 -2 9 2 15 9 16 15 13 8 -4z m37
11 c0 -3 -4 -8 -10 -11 -5 -3 -10 -1 -10 4 0 6 5 11 10 11 6 0 10 -2 10 -4z
m-174 -35 c-3 -5 3 -11 15 -14 16 -4 18 -3 8 9 -7 8 -7 14 -1 14 14 0 22 -24
13 -39 -6 -9 -14 -8 -34 2 -20 10 -23 17 -15 25 14 14 21 16 14 3z m-277 -4
c-2 -1 -13 -9 -24 -17 -19 -14 -19 -14 -6 3 7 9 18 17 24 17 6 0 8 -1 6 -3z
m35 -71 c-6 -16 -24 -23 -24 -8 0 10 22 33 27 28 2 -2 1 -11 -3 -20z m-1224
-140 c0 -2 -7 -7 -16 -10 -8 -3 -12 -2 -9 4 6 10 25 14 25 6z m-20 -69 c0 -7
-4 -6 -10 3 -6 10 -10 11 -10 3 0 -7 -5 -13 -11 -13 -8 0 -8 5 1 15 13 16 30
11 30 -8z m1254 -136 c4 -5 -3 -7 -14 -4 -23 6 -26 13 -6 13 8 0 17 -4 20 -9z
m-1438 -93 c4 -6 3 -8 -3 -5 -12 8 -26 -20 -18 -33 3 -5 0 -12 -6 -16 -7 -4
-9 -3 -6 2 3 6 2 16 -3 24 -6 9 -3 18 8 27 21 15 19 15 28 1z m1464 -8 c0 -5
-5 -10 -11 -10 -5 0 -7 5 -4 10 3 6 8 10 11 10 2 0 4 -4 4 -10z m129 -133 c0
-9 -2 -8 -6 1 -2 6 -10 9 -15 6 -7 -4 -8 -2 -4 5 9 13 26 5 25 -12z m177 -54
c-3 -8 1 -16 8 -19 8 -3 17 -13 21 -22 5 -13 3 -13 -14 2 -12 11 -25 15 -33
10 -7 -4 -10 -4 -6 1 4 4 3 14 -3 21 -6 8 -8 21 -5 30 5 13 9 14 22 4 8 -7 13
-19 10 -27z m29 -3 c3 -5 1 -10 -4 -10 -6 0 -11 5 -11 10 0 6 2 10 4 10 3 0 8
-4 11 -10z m-71 -8 c3 -5 -1 -9 -9 -9 -8 0 -12 4 -9 9 3 4 7 8 9 8 2 0 6 -4 9
-8z m132 -64 c3 -4 -1 -5 -10 -4 -8 1 -18 5 -22 8 -3 4 1 5 10 4 8 -1 18 -5
22 -8z m79 2 c3 -5 1 -10 -4 -10 -6 0 -11 5 -11 10 0 6 2 10 4 10 3 0 8 -4 11
-10z m57 -8 c-22 -7 -12 -20 14 -17 l25 2 -22 -23 c-12 -13 -30 -23 -38 -23
-12 1 -12 2 2 6 17 4 17 6 2 29 -9 14 -11 24 -5 24 6 0 8 4 5 10 -4 6 1 7 11
3 11 -4 13 -8 6 -11z m-82 -7 c0 -1 -9 -5 -19 -8 -13 -3 -18 -1 -14 9 4 10 33
10 33 -1z m163 -48 c3 -8 -1 -14 -8 -14 -7 0 -11 6 -8 14 3 7 6 13 8 13 2 0 5
-6 8 -13z m-2539 -5 c3 -5 -1 -9 -9 -9 -8 0 -12 4 -9 9 3 4 7 8 9 8 2 0 6 -4
9 -8z m2486 -12 c0 -5 -4 -10 -10 -10 -5 0 -10 5 -10 10 0 6 5 10 10 10 6 0
10 -4 10 -10z m-30 -14 c0 -2 -8 -10 -17 -17 -16 -13 -17 -12 -4 4 13 16 21
21 21 13z m68 -47 c3 -12 2 -12 -6 0 -6 8 -15 10 -22 6 -9 -5 -11 -4 -6 4 10
15 28 10 34 -10z m217 -108 c-9 -8 -36 -10 -31 -2 7 11 -28 38 -47 35 -13 -2
-15 2 -7 16 7 13 7 21 0 25 -5 3 -10 10 -10 15 0 5 23 -12 50 -37 28 -25 48
-49 45 -52z m-65 13 c0 -8 -19 -13 -24 -6 -3 5 1 9 9 9 8 0 15 -2 15 -3z m184
-83 c14 -15 15 -21 4 -27 -7 -4 -10 -4 -6 0 9 11 -14 36 -26 28 -5 -3 -6 0 -2
6 9 15 10 15 30 -7z m131 -65 c18 7 30 -15 16 -29 -9 -9 -11 -8 -6 6 8 18 -5
23 -21 7 -6 -6 -10 -2 -11 13 0 12 1 17 4 10 2 -7 10 -10 18 -7z m522 -433 c0
-9 -4 -10 -14 -2 -10 9 -13 8 -13 -1 0 -8 -3 -11 -6 -7 -9 9 3 24 19 24 7 0
14 -6 14 -14z m308 -203 c3 -5 1 -10 -4 -10 -6 0 -11 5 -11 10 0 6 2 10 4 10
3 0 8 -4 11 -10z m-24 -32 c5 -10 4 -15 -5 -15 -8 0 -12 7 -8 15 3 10 1 13 -6
8 -6 -3 -13 -2 -16 3 -4 5 1 8 10 7 9 -1 20 -9 25 -18z m-37 -14 c3 -8 2 -12
-4 -9 -6 3 -10 10 -10 16 0 14 7 11 14 -7z m-5488 -6 c4 -7 4 -10 -1 -6 -4 4
-15 2 -24 -5 -14 -11 -14 -10 -2 6 16 20 18 21 27 5z m5552 -14 c0 -17 -3 -22
-8 -13 -5 6 -6 18 -3 26 8 19 11 16 11 -13z m-23 -14 c3 -6 -1 -7 -9 -4 -18 7
-21 14 -7 14 6 0 13 -4 16 -10z m17 -52 c-7 -7 -12 -8 -12 -2 0 14 12 26 19
19 2 -3 -1 -11 -7 -17z m1213 -817 c3 -5 2 -12 -3 -15 -5 -3 -9 1 -9 9 0 17 3
19 12 6z m153 -202 c-3 -8 -7 -3 -11 10 -4 17 -3 21 5 13 5 -5 8 -16 6 -23z"/>
<path d="M5901 7396 c-9 -10 -8 -15 3 -19 8 -3 17 1 20 8 7 20 -9 28 -23 11z"/>
<path d="M5945 7360 c-3 -6 1 -7 9 -4 18 7 21 14 7 14 -6 0 -13 -4 -16 -10z"/>
<path d="M5987 7309 c7 -7 15 -10 18 -7 3 3 -2 9 -12 12 -14 6 -15 5 -6 -5z"/>
<path d="M5965 7240 c-4 -6 -1 -9 7 -8 7 2 12 -3 10 -10 -1 -8 2 -11 7 -7 11
6 3 35 -9 35 -5 0 -12 -5 -15 -10z"/>
<path d="M5905 7141 c-6 -11 13 -26 22 -17 4 3 1 6 -6 6 -7 0 -9 5 -6 10 3 6
4 10 1 10 -3 0 -7 -4 -11 -9z"/>
<path d="M5961 7141 c-10 -6 -9 -10 3 -14 8 -3 18 -2 21 3 8 13 -9 20 -24 11z"/>
<path d="M5904 7089 c-3 -6 -2 -15 3 -20 5 -5 9 -1 9 11 0 23 -2 24 -12 9z"/>
<path d="M5530 5160 c0 -5 5 -10 10 -10 6 0 10 5 10 10 0 6 -4 10 -10 10 -5 0
-10 -4 -10 -10z"/>
<path d="M5990 4878 c0 -6 3 -8 7 -5 4 4 20 -5 37 -20 l31 -28 -29 33 c-31 33
-46 40 -46 20z"/>
<path d="M5586 8008 c3 -4 9 -8 15 -8 5 0 9 4 9 8 0 5 -7 9 -15 9 -8 0 -12 -4
-9 -9z"/>
<path d="M5700 7896 c0 -8 4 -17 9 -20 5 -4 7 3 4 14 -6 23 -13 26 -13 6z"/>
<path d="M5800 7786 c0 -2 7 -9 15 -16 9 -7 15 -8 15 -2 0 5 -7 12 -15 16 -8
3 -15 4 -15 2z"/>
<path d="M5830 7736 c12 -16 40 -11 40 6 0 6 -6 5 -15 -2 -10 -9 -15 -9 -15
-1 0 6 -5 11 -11 11 -8 0 -8 -4 1 -14z"/>
<path d="M5861 7636 c-9 -10 -7 -17 6 -27 10 -7 15 -9 11 -5 -4 5 -3 15 3 22
6 7 6 14 1 18 -6 3 -15 0 -21 -8z"/>
<path d="M5865 7581 c-3 -5 2 -17 11 -25 22 -22 31 -20 11 2 -10 10 -14 22
-10 25 3 4 4 7 0 7 -3 0 -8 -4 -12 -9z"/>
<path d="M6005 7580 c-4 -6 -1 -18 7 -27 11 -15 11 -16 -5 -10 -11 4 -16 3
-12 -3 3 -6 1 -10 -6 -10 -7 0 -10 -3 -6 -6 9 -9 40 12 43 30 1 9 -2 13 -9 9
-6 -4 -8 0 -4 10 7 19 2 23 -8 7z"/>
<path d="M5886 7522 c-3 -5 1 -17 8 -27 12 -17 13 -17 11 3 -2 26 -11 37 -19
24z"/>
<path d="M6030 7520 c0 -5 7 -7 15 -4 8 4 15 8 15 10 0 2 -7 4 -15 4 -8 0 -15
-4 -15 -10z"/>
<path d="M5980 7499 c0 -4 11 -6 25 -6 13 0 22 3 20 8 -6 9 -45 8 -45 -2z"/>
<path d="M6070 7500 c0 -5 5 -10 11 -10 5 0 7 5 4 10 -3 6 -8 10 -11 10 -2 0
-4 -4 -4 -10z"/>
<path d="M6040 7480 c0 -5 5 -10 10 -10 6 0 10 5 10 10 0 6 -4 10 -10 10 -5 0
-10 -4 -10 -10z"/>
<path d="M6038 7443 c7 -3 16 -2 19 1 4 3 -2 6 -13 5 -11 0 -14 -3 -6 -6z"/>
<path d="M6027 7424 c7 -3 15 -5 19 -4 4 1 11 -4 16 -12 8 -11 9 -10 6 1 -2 8
-15 15 -29 17 -13 1 -18 0 -12 -2z"/>
<path d="M6021 7394 c0 -11 3 -14 6 -6 3 7 2 16 -1 19 -3 4 -6 -2 -5 -13z"/>
<path d="M6040 7397 c0 -2 6 -10 14 -16 11 -9 16 -9 22 1 4 7 4 10 -1 6 -4 -4
-14 -3 -22 3 -7 6 -13 9 -13 6z"/>
<path d="M6090 7361 c0 -6 4 -13 10 -16 6 -3 7 1 4 9 -7 18 -14 21 -14 7z"/>
<path d="M5950 7046 c0 -8 4 -17 9 -20 5 -4 7 3 4 14 -6 23 -13 26 -13 6z"/>
<path d="M5875 7041 c-3 -5 -1 -12 5 -16 5 -3 10 1 10 9 0 18 -6 21 -15 7z"/>
<path d="M3695 7020 c-3 -5 -1 -10 4 -10 6 0 11 5 11 10 0 6 -2 10 -4 10 -3 0
-8 -4 -11 -10z"/>
<path d="M5956 6993 c-6 -14 -5 -15 5 -6 7 7 10 15 7 18 -3 3 -9 -2 -12 -12z"/>
<path d="M5910 6959 c0 -5 5 -7 10 -4 6 3 10 8 10 11 0 2 -4 4 -10 4 -5 0 -10
-5 -10 -11z"/>
<path d="M5864 6893 c3 -20 21 -28 31 -14 4 7 0 8 -11 4 -11 -4 -15 -3 -10 5
3 6 2 13 -3 16 -5 4 -8 -2 -7 -11z"/>
<path d="M3995 6200 c-3 -5 -1 -10 4 -10 6 0 11 5 11 10 0 6 -2 10 -4 10 -3 0
-8 -4 -11 -10z"/>
<path d="M5553 5855 c0 -8 4 -12 9 -9 5 3 6 10 3 15 -9 13 -12 11 -12 -6z"/>
<path d="M5323 5853 c-18 -7 -16 -20 2 -20 8 0 15 6 15 14 0 7 -1 13 -2 12 -2
0 -9 -3 -15 -6z"/>
<path d="M5288 5821 c11 -6 10 -11 -3 -25 -10 -9 -20 -14 -23 -11 -4 3 0 10 8
15 11 7 10 9 -7 7 -17 -1 -20 -5 -13 -17 13 -24 56 -19 52 6 -3 15 -1 17 9 7
7 -7 17 -13 22 -13 5 0 -2 9 -16 20 -14 11 -29 20 -34 20 -4 0 -2 -4 5 -9z"/>
<path d="M5390 5820 c0 -5 7 -7 15 -4 8 4 15 8 15 10 0 2 -7 4 -15 4 -8 0 -15
-4 -15 -10z"/>
<path d="M5371 5794 c0 -11 3 -14 6 -6 3 7 2 16 -1 19 -3 4 -6 -2 -5 -13z"/>
<path d="M5230 5755 c0 -8 4 -15 8 -15 5 0 9 7 9 15 0 8 -4 15 -9 15 -4 0 -8
-7 -8 -15z"/>
<path d="M5353 5750 c1 -11 5 -20 9 -20 3 0 6 9 5 20 -1 11 -5 20 -9 20 -3 0
-6 -9 -5 -20z"/>
<path d="M5300 5745 c0 -2 6 -8 13 -14 10 -8 14 -7 14 2 0 8 -6 14 -14 14 -7
0 -13 -1 -13 -2z"/>
<path d="M5176 5715 c-3 -9 3 -19 14 -25 11 -6 20 -7 20 -3 1 4 9 -2 20 -15
17 -21 19 -21 17 -3 0 11 -4 18 -8 15 -4 -2 -10 0 -13 5 -4 5 4 11 16 13 21 3
21 4 -4 9 -15 3 -26 3 -25 -1 1 -5 -1 -8 -5 -9 -22 -3 -27 0 -22 14 4 8 4 15
1 15 -3 0 -7 -7 -11 -15z"/>
<path d="M5366 5698 c3 -5 10 -6 15 -3 13 9 11 12 -6 12 -8 0 -12 -4 -9 -9z"/>
<path d="M5173 5657 c-13 -20 -11 -30 13 -63 18 -24 20 -34 11 -43 -9 -10 -5
-19 21 -42 32 -29 43 -47 20 -33 -8 5 -7 1 2 -10 8 -10 15 -25 17 -34 1 -9 10
-22 19 -29 13 -9 14 -13 4 -13 -9 0 -7 -5 6 -15 15 -12 16 -14 3 -15 -9 0 -16
-7 -16 -15 0 -10 4 -12 12 -5 15 12 29 -15 18 -33 -4 -7 0 -7 9 1 17 13 35 1
24 -17 -3 -4 3 -16 14 -26 19 -18 20 -17 18 8 -1 14 -6 23 -10 21 -15 -9 -8 7
12 28 11 12 17 24 14 27 -3 3 -8 1 -12 -5 -12 -18 -32 -10 -47 20 -13 25 -13
27 1 22 9 -3 17 -6 20 -6 2 0 1 -8 -2 -17 -4 -11 -2 -14 3 -8 13 17 41 12 56
-9 11 -15 16 -16 22 -6 6 9 4 11 -5 5 -10 -6 -12 -4 -7 8 3 9 3 16 -1 15 -4
-1 -18 4 -32 12 -14 7 -26 13 -27 12 -11 -7 -23 0 -17 10 4 6 3 8 -4 4 -5 -3
-13 0 -15 6 -3 8 -6 6 -6 -5 -1 -10 -5 -16 -9 -13 -13 8 -7 49 8 54 9 3 10 0
4 -9 -7 -12 -5 -12 9 0 9 7 17 19 16 25 0 7 -2 7 -5 -1 -3 -7 -12 -9 -20 -6
-7 3 -11 10 -7 17 14 22 11 36 -9 36 -17 0 -18 2 -8 15 7 9 10 18 7 22 -4 3
-1 13 6 22 10 14 10 14 -4 4 -9 -7 -20 -9 -24 -5 -5 4 -5 1 -1 -5 4 -7 3 -13
-2 -13 -16 0 -22 13 -11 27 8 8 8 13 1 13 -6 0 -12 -6 -15 -12 -2 -7 -8 -10
-12 -6 -4 4 -2 14 5 23 17 20 3 19 -17 -1 -15 -15 -18 -14 -34 7 -20 27 -19
32 5 23 9 -3 13 -11 9 -18 -4 -6 1 -5 11 3 23 19 17 53 -11 57 -12 2 -26 -2
-30 -9z m47 -19 c0 -11 -5 -15 -15 -12 -8 4 -15 10 -15 16 0 5 -5 6 -12 2 -6
-4 -8 -3 -4 4 10 17 46 10 46 -10z m34 -99 c-8 -13 10 -11 24 3 18 18 14 -3
-4 -23 -12 -14 -13 -21 -4 -36 10 -16 10 -15 5 5 -6 22 -5 23 15 12 16 -8 19
-15 11 -24 -6 -7 -8 -16 -4 -19 3 -4 -2 -10 -11 -13 -14 -5 -15 -9 -5 -15 8
-4 10 -11 6 -15 -9 -9 -18 -1 -22 23 -2 10 -4 20 -5 23 -4 11 -7 26 -8 48 -1
13 -7 20 -12 17 -6 -4 -7 -11 -4 -17 4 -7 2 -8 -5 -4 -6 4 -9 11 -6 16 3 4 -2
11 -11 14 -12 5 -14 10 -5 20 6 7 7 16 3 21 -4 4 5 0 20 -10 15 -9 25 -21 22
-26z m70 -191 c7 -12 18 -22 25 -20 7 1 10 -2 6 -8 -8 -14 -45 11 -45 30 0 9
-4 21 -10 28 -7 8 -7 9 1 3 6 -5 17 -20 23 -33z"/>
<path d="M5216 5552 c-3 -4 4 -9 15 -9 23 -2 25 3 4 10 -8 4 -16 3 -19 -1z"/>
<path d="M5267 5459 c7 -7 15 -10 18 -7 3 3 -2 9 -12 12 -14 6 -15 5 -6 -5z"/>
<path d="M5290 5620 c0 -5 5 -10 11 -10 5 0 7 5 4 10 -3 6 -8 10 -11 10 -2 0
-4 -4 -4 -10z"/>
<path d="M5354 5546 c3 -16 8 -31 11 -35 3 -3 4 7 1 23 -3 16 -8 31 -11 35 -3
3 -4 -7 -1 -23z"/>
<path d="M5317 5529 c7 -7 15 -10 18 -7 3 3 -2 9 -12 12 -14 6 -15 5 -6 -5z"/>
<path d="M5386 5421 c-3 -4 6 -7 19 -7 14 0 22 2 19 5 -8 8 -34 10 -38 2z"/>
<path d="M5411 5387 c2 -1 13 -9 24 -17 19 -14 19 -14 6 3 -7 9 -18 17 -24 17
-6 0 -8 -1 -6 -3z"/>
<path d="M5430 5325 c0 -5 5 -17 10 -25 5 -8 10 -10 10 -5 0 6 -5 17 -10 25
-5 8 -10 11 -10 5z"/>
<path d="M5468 5312 c9 -10 19 -17 21 -16 6 5 -20 34 -30 34 -5 0 -1 -8 9 -18z"/>
<path d="M5460 5294 c0 -5 6 -19 14 -30 12 -16 17 -17 28 -5 11 11 10 13 -2 9
-8 -3 -20 4 -27 16 -7 12 -12 16 -13 10z"/>
<path d="M5390 5239 c0 -5 5 -9 10 -9 6 0 12 0 15 0 14 0 8 13 -7 16 -10 1
-18 -2 -18 -7z"/>
<path d="M5566 5201 c-3 -5 1 -11 9 -14 9 -4 12 -1 8 9 -6 16 -10 17 -17 5z"/>
<path d="M5710 5139 c0 -5 5 -7 10 -4 6 3 10 8 10 11 0 2 -4 4 -10 4 -5 0 -10
-5 -10 -11z"/>
<path d="M3256 4988 c3 -5 10 -6 15 -3 13 9 11 12 -6 12 -8 0 -12 -4 -9 -9z"/>
<path d="M6035 4900 c3 -5 8 -10 11 -10 2 0 4 5 4 10 0 6 -5 10 -11 10 -5 0
-7 -4 -4 -10z"/>
<path d="M6446 4623 c-6 -14 -5 -15 5 -6 7 7 10 15 7 18 -3 3 -9 -2 -12 -12z"/>
<path d="M1828 4183 c7 -3 16 -2 19 1 4 3 -2 6 -13 5 -11 0 -14 -3 -6 -6z"/>
<path d="M7116 3762 c-3 -5 1 -9 9 -9 8 0 12 4 9 9 -3 4 -7 8 -9 8 -2 0 -6 -4
-9 -8z"/>
<path d="M1276 3601 c-3 -5 0 -11 7 -14 8 -3 14 1 14 9 0 16 -13 19 -21 5z"/>
<path d="M8390 3056 c0 -2 7 -7 16 -10 8 -3 12 -2 9 4 -6 10 -25 14 -25 6z"/>
<path d="M659 2993 c-13 -16 -12 -17 4 -4 9 7 17 15 17 17 0 8 -8 3 -21 -13z"/>
</g>
</svg>
